<svg width="32" height="33" viewBox="0 0 32 33" fill="none" xmlns="http://www.w3.org/2000/svg">
<path d="M2.04077 31.1796C2.47985 28.2202 3.79389 25.6264 5.97985 23.4C8.74077 20.6 12.0735 19.2 15.9799 19.2C19.8863 19.2 23.2207 20.6 25.9799 23.4C28.1799 25.6266 29.5064 28.2204 29.9595 31.1796M24.1408 10.0204C24.1408 12.247 23.347 14.1532 21.7595 15.7408C20.1736 17.3408 18.2533 18.1408 16.0003 18.1408C13.7597 18.1408 11.8411 17.3408 10.2411 15.7408C8.65361 14.1533 7.85989 12.247 7.85989 10.0204C7.85989 7.76727 8.65365 5.84679 10.2411 4.25959C11.8411 2.67367 13.7599 1.87991 16.0003 1.87991C18.2535 1.87991 20.1739 2.67367 21.7595 4.25959C23.3471 5.84711 24.1408 7.76739 24.1408 10.0204Z" stroke="#213F7D" stroke-width="3" stroke-linecap="round" stroke-linejoin="round"/>
</svg>
